  <svg
    width="104"
    height="30"
    viewBox="0 0 104 30"
    fill="none"
    xmlns="http://www.w3.org/2000/svg"
  >
    <path
      d="M45.3306 5.96242C42.8963 5.96242 40.8916 6.77594 39.3164 8.42691C37.7651 10.0539 36.9775 12.1117 36.9775 14.624C36.9775 17.1363 37.7651 19.218 39.3164 20.869C40.8916 22.5199 42.8963 23.3334 45.3545 23.3334C49.531 23.3334 52.1324 21.2039 53.0632 17.4713H49.6026C48.9583 19.3376 47.5263 20.2708 45.3545 20.2708C43.8748 20.2708 42.6815 19.7444 41.7507 18.6916C40.8438 17.6149 40.3904 16.275 40.3904 14.624C40.3904 12.997 40.8438 11.6571 41.7507 10.6043C42.6815 9.55148 43.8748 9.02508 45.3306 9.02508C47.407 9.02508 48.7435 9.91038 49.3879 11.681H52.9916C52.0608 8.16371 49.4356 5.96242 45.3306 5.96242Z"
      fill="#0644CC"
    />
    <path
      d="M61.877 10.7718C59.9678 10.7718 58.7983 11.6092 58.3449 12.8295L58.0585 10.8914H55.3855V23.0224H58.4881V16.8492C58.5358 15.8204 58.8699 15.0786 59.4666 14.6001C60.0871 14.1215 60.8985 13.8823 61.877 13.8823V10.7718Z"
      fill="#0644CC"
    />
    <path
      d="M69.0696 10.6282C67.2797 10.6282 65.8477 11.2264 64.726 12.4227C63.6043 13.5951 63.0554 15.1265 63.0554 16.9689C63.0554 18.8591 63.6043 20.3904 64.7022 21.5628C65.8239 22.7113 67.2797 23.2856 69.0696 23.2856C71.9574 23.2856 73.8428 21.826 74.6066 19.218H71.5994C71.2415 20.1511 70.43 20.6297 69.1651 20.6297C67.4706 20.6297 66.3489 19.529 66.2535 17.902H74.6782V16.9449C74.6782 12.8056 72.4109 10.6282 69.0696 10.6282ZM66.2773 15.7486C66.4444 14.2412 67.4706 13.2123 68.9981 13.2123C70.5255 13.2123 71.5278 14.2172 71.5517 15.7486H66.2773Z"
      fill="#0644CC"
    />
    <path
      d="M85.7867 5.55566V12.2074C84.9991 11.1546 83.7819 10.6282 82.159 10.6282C80.5361 10.6282 79.1996 11.2264 78.1257 12.4466C77.0517 13.6669 76.5267 15.1504 76.5267 16.9449C76.5267 18.7395 77.0517 20.2469 78.1257 21.4671C79.1996 22.6874 80.5361 23.2856 82.1352 23.2856C83.8296 23.2856 85.1184 22.6635 85.9776 21.3954L86.2162 23.0224H88.8892V5.55566H85.7867ZM82.7795 13.5473C83.591 13.5473 84.307 13.8583 84.9036 14.4565C85.5003 15.0547 85.8105 15.8443 85.8344 16.8731V17.0167C85.8344 18.0456 85.5241 18.883 84.9275 19.4812C84.3308 20.0794 83.6148 20.3665 82.7795 20.3665C81.0373 20.3665 79.7247 18.9787 79.7247 16.9449C79.7247 14.9351 81.0612 13.5473 82.7795 13.5473Z"
      fill="#0644CC"
    />
    <path
      d="M97.6275 10.6282C95.7899 10.6282 94.2863 11.2264 93.093 12.3988C91.8997 13.5712 91.3031 15.0786 91.3031 16.9449C91.3031 18.8112 91.8997 20.3426 93.093 21.515C94.2863 22.6874 95.7899 23.2856 97.6275 23.2856C99.4652 23.2856 100.993 22.6874 102.186 21.515C103.403 20.3426 104 18.8112 104 16.9449C104 15.0786 103.403 13.5712 102.186 12.3988C100.993 11.2264 99.4652 10.6282 97.6275 10.6282ZM97.6514 13.4516C99.5368 13.4516 100.778 14.9111 100.778 16.9449C100.778 18.9548 99.4891 20.4383 97.6514 20.4383C96.7206 20.4383 95.9808 20.1033 95.3841 19.4573C94.7875 18.7873 94.5011 17.9499 94.5011 16.9449C94.5011 15.94 94.7875 15.1025 95.3841 14.4565C95.9808 13.7866 96.7206 13.4516 97.6514 13.4516Z"
      fill="#0644CC"
    />
    <path
      d="M4.33848 15.0027C4.33848 9.13008 9.03983 4.38318 14.856 4.38318C17.0174 4.38318 19.0341 5.03363 20.7117 6.17257C22.2157 4.68053 22.7126 2.85133 20.6722 1.19469C18.8869 0.422124 16.9122 0 14.856 0C6.64972 0 0 6.71416 0 15C0 23.2858 6.64972 30 14.856 30C18.4557 30 21.7608 28.6991 24.3402 26.5407C27.0143 24.3027 24.193 20.9124 21.6951 23.0681C19.8545 24.6558 17.4644 25.6168 14.8587 25.6168C9.03983 25.6221 4.33848 20.8619 4.33848 15.0027Z"
      fill="#00E2FF"
    />
    <path
      d="M24.0657 9.49875C25.0729 8.13904 25.5766 6.69843 25.3793 5.36482C25.034 3.13866 22.6743 1.91205 20.8026 1.11084C22.5393 2.50969 21.8358 4.57666 20.6573 6.27042L15.0474 14.2825L15.0215 14.3895C16.1351 15.5483 17.9263 17.9101 19.4501 15.8562L24.0657 9.49875Z"
      fill="url(#paint0_linear)"
    />
    <path
      d="M14.7009 14.522C14.1921 14.0385 12.9645 12.8528 11.0843 10.811C9.02159 8.5747 5.32203 11.3917 7.70822 14.0682L15.0106 22.2221L19.6447 16.3991C18.077 18.4544 15.8318 15.5834 14.7009 14.522Z"
      fill="url(#paint1_linear)"
    />
    <defs>
      <linearGradient
        id="paint0_linear"
        x1="15.0221"
        y1="8.88952"
        x2="25.4219"
        y2="8.88952"
        gradientUnits="userSpaceOnUse"
      >
        <stop stop-color="#00AAFF" />
        <stop offset="0.9999" stop-color="#00ADFF" />
      </linearGradient>
      <linearGradient
        id="paint1_linear"
        x1="6.93521"
        y1="16.1092"
        x2="19.6459"
        y2="16.1092"
        gradientUnits="userSpaceOnUse"
      >
        <stop stop-color="#00C0FF" />
        <stop offset="0.1453" stop-color="#039BFF" />
        <stop offset="0.3074" stop-color="#0579FF" />
        <stop offset="0.4731" stop-color="#075EFF" />
        <stop offset="0.6416" stop-color="#084BFF" />
        <stop offset="0.8145" stop-color="#0940FF" />
        <stop offset="0.9987" stop-color="#093CFF" />
      </linearGradient>
    </defs>
  </svg>