<?xml version="1.0" encoding="UTF-8"?>
<svg xmlns="http://www.w3.org/2000/svg" xmlns:xlink="http://www.w3.org/1999/xlink" viewBox="0 0 35 35" width="35px" height="35px">
<g id="surface1541335">
<path style=" stroke:none;fill-rule:nonzero;fill:rgb(0%,36.470589%,58.823532%);fill-opacity:1;" d="M 17.5 1.398438 C 8.617188 1.398438 1.398438 8.617188 1.398438 17.5 C 1.398438 26.382812 8.617188 33.601562 17.5 33.601562 C 26.382812 33.601562 33.601562 26.382812 33.601562 17.5 C 33.601562 8.617188 26.382812 1.398438 17.5 1.398438 Z M 17.5 2.800781 C 25.625 2.800781 32.199219 9.375 32.199219 17.5 C 32.199219 25.625 25.625 32.199219 17.5 32.199219 C 9.375 32.199219 2.800781 25.625 2.800781 17.5 C 2.800781 9.375 9.375 2.800781 17.5 2.800781 Z M 23.09375 11.191406 C 22.910156 11.195312 22.734375 11.273438 22.605469 11.40625 L 17.5 16.511719 L 12.394531 11.40625 C 12.261719 11.269531 12.082031 11.191406 11.894531 11.191406 C 11.609375 11.191406 11.351562 11.367188 11.246094 11.628906 C 11.136719 11.894531 11.199219 12.195312 11.40625 12.394531 L 16.511719 17.5 L 11.40625 22.605469 C 11.222656 22.78125 11.148438 23.042969 11.210938 23.285156 C 11.277344 23.53125 11.46875 23.722656 11.714844 23.789062 C 11.957031 23.851562 12.21875 23.777344 12.394531 23.59375 L 17.5 18.488281 L 22.605469 23.59375 C 22.78125 23.777344 23.042969 23.851562 23.285156 23.789062 C 23.53125 23.722656 23.722656 23.53125 23.789062 23.285156 C 23.851562 23.042969 23.777344 22.78125 23.59375 22.605469 L 18.488281 17.5 L 23.59375 12.394531 C 23.804688 12.195312 23.867188 11.886719 23.757812 11.621094 C 23.644531 11.355469 23.382812 11.183594 23.09375 11.191406 Z M 23.09375 11.191406 "/>
</g>
</svg>
